<mxfile host="65bd71144e">
    <diagram id="yg7IqM9J5nl_mzUDm_qV" name="Page-1">
        <mxGraphModel dx="1587" dy="527" grid="1" gridSize="10" guides="1" tooltips="1" connect="1" arrows="1" fold="1" page="0" pageScale="1" pageWidth="850" pageHeight="1100" math="0" shadow="0">
            <root>
                <mxCell id="0"/>
                <mxCell id="1" parent="0"/>
                <mxCell id="2" value="The Plan&lt;br&gt;Neural Net thing" style="text;strokeColor=none;fillColor=none;html=1;fontSize=24;fontStyle=1;verticalAlign=middle;align=center;rounded=1;" parent="1" vertex="1">
                    <mxGeometry x="375" y="20" width="100" height="40" as="geometry"/>
                </mxCell>
                <mxCell id="gWObZc9pJvgN-Cl8AsEd-3" value="01" style="ellipse;whiteSpace=wrap;html=1;aspect=fixed;rounded=1;" vertex="1" parent="1">
                    <mxGeometry x="360" y="80" width="30" height="30" as="geometry"/>
                </mxCell>
                <mxCell id="gWObZc9pJvgN-Cl8AsEd-4" value="02" style="ellipse;whiteSpace=wrap;html=1;aspect=fixed;rounded=1;" vertex="1" parent="1">
                    <mxGeometry x="400" y="80" width="30" height="30" as="geometry"/>
                </mxCell>
                <mxCell id="gWObZc9pJvgN-Cl8AsEd-5" value="03" style="ellipse;whiteSpace=wrap;html=1;aspect=fixed;rounded=1;" vertex="1" parent="1">
                    <mxGeometry x="440" y="80" width="30" height="30" as="geometry"/>
                </mxCell>
                <mxCell id="gWObZc9pJvgN-Cl8AsEd-6" value="01" style="ellipse;whiteSpace=wrap;html=1;aspect=fixed;rounded=1;" vertex="1" parent="1">
                    <mxGeometry x="360" y="240" width="30" height="30" as="geometry"/>
                </mxCell>
                <mxCell id="gWObZc9pJvgN-Cl8AsEd-7" value="02" style="ellipse;whiteSpace=wrap;html=1;aspect=fixed;rounded=1;" vertex="1" parent="1">
                    <mxGeometry x="400" y="240" width="30" height="30" as="geometry"/>
                </mxCell>
                <mxCell id="gWObZc9pJvgN-Cl8AsEd-8" value="03" style="ellipse;whiteSpace=wrap;html=1;aspect=fixed;rounded=1;" vertex="1" parent="1">
                    <mxGeometry x="440" y="240" width="30" height="30" as="geometry"/>
                </mxCell>
                <mxCell id="gWObZc9pJvgN-Cl8AsEd-11" value="" style="endArrow=classic;html=1;exitX=0.5;exitY=1;exitDx=0;exitDy=0;rounded=1;curved=1;" edge="1" parent="1" source="gWObZc9pJvgN-Cl8AsEd-4" target="gWObZc9pJvgN-Cl8AsEd-8">
                    <mxGeometry width="50" height="50" relative="1" as="geometry">
                        <mxPoint x="640" y="220" as="sourcePoint"/>
                        <mxPoint x="690" y="170" as="targetPoint"/>
                        <Array as="points">
                            <mxPoint x="415" y="170"/>
                            <mxPoint x="460" y="150"/>
                        </Array>
                    </mxGeometry>
                </mxCell>
                <mxCell id="gWObZc9pJvgN-Cl8AsEd-24" value="Goal: Design a program to generate and simulate recurent neural networks to be trained through an evolutionary process.&amp;nbsp;&lt;span&gt;Must be able to generate and simulate neural&lt;/span&gt;&lt;br&gt;&lt;span&gt;networks with variable amounts of inputs, outputs, iner nodes&lt;/span&gt;&lt;br&gt;&lt;span&gt;and&amp;nbsp;connections.&amp;nbsp;&lt;/span&gt;" style="text;html=1;strokeColor=none;fillColor=none;align=left;verticalAlign=middle;whiteSpace=wrap;rounded=1;" vertex="1" parent="1">
                    <mxGeometry y="30" width="320" height="40" as="geometry"/>
                </mxCell>
                <mxCell id="gWObZc9pJvgN-Cl8AsEd-25" value="80" style="ellipse;whiteSpace=wrap;html=1;aspect=fixed;rounded=1;" vertex="1" parent="1">
                    <mxGeometry x="490" y="170" width="20" height="20" as="geometry"/>
                </mxCell>
                <mxCell id="OubXks9zK13v49aWxOXn-15" value="Requirments: &amp;nbsp;" style="text;html=1;align=left;verticalAlign=middle;resizable=0;points=[];autosize=1;strokeColor=none;fillColor=none;fontSize=12;" vertex="1" parent="1">
                    <mxGeometry y="100" width="90" height="20" as="geometry"/>
                </mxCell>
                <mxCell id="gWObZc9pJvgN-Cl8AsEd-26" value="" style="endArrow=classic;html=1;rounded=1;curved=1;exitX=0.5;exitY=1;exitDx=0;exitDy=0;entryX=0.5;entryY=0;entryDx=0;entryDy=0;" edge="1" parent="1" source="gWObZc9pJvgN-Cl8AsEd-5" target="gWObZc9pJvgN-Cl8AsEd-25">
                    <mxGeometry width="50" height="50" relative="1" as="geometry">
                        <mxPoint x="480" y="220" as="sourcePoint"/>
                        <mxPoint x="530" y="170" as="targetPoint"/>
                    </mxGeometry>
                </mxCell>
                <mxCell id="gWObZc9pJvgN-Cl8AsEd-27" value="" style="endArrow=classic;html=1;rounded=1;curved=1;exitX=0.5;exitY=1;exitDx=0;exitDy=0;entryX=0.5;entryY=0;entryDx=0;entryDy=0;" edge="1" parent="1" source="gWObZc9pJvgN-Cl8AsEd-25" target="gWObZc9pJvgN-Cl8AsEd-7">
                    <mxGeometry width="50" height="50" relative="1" as="geometry">
                        <mxPoint x="480" y="220" as="sourcePoint"/>
                        <mxPoint x="530" y="170" as="targetPoint"/>
                    </mxGeometry>
                </mxCell>
                <mxCell id="gWObZc9pJvgN-Cl8AsEd-29" value="Connections are created by a string of hex characters" style="text;html=1;strokeColor=none;fillColor=none;align=center;verticalAlign=middle;whiteSpace=wrap;rounded=0;" vertex="1" parent="1">
                    <mxGeometry x="550" y="110" width="150" as="geometry"/>
                </mxCell>
                <mxCell id="gWObZc9pJvgN-Cl8AsEd-30" value="Connection" style="swimlane;rounded=1;" vertex="1" parent="1">
                    <mxGeometry x="715" y="300" width="145" height="150" as="geometry"/>
                </mxCell>
                <mxCell id="gWObZc9pJvgN-Cl8AsEd-32" value="start link adr: hex 2&lt;br&gt;end link adr: hex 2&lt;br&gt;strength: hex 4&lt;br&gt;&lt;br&gt;from_genome(genome)" style="text;strokeColor=none;fillColor=none;align=left;verticalAlign=top;rounded=0;whiteSpace=wrap;html=1;" vertex="1" parent="gWObZc9pJvgN-Cl8AsEd-30">
                    <mxGeometry x="2.5" y="25" width="140" height="125" as="geometry"/>
                </mxCell>
                <mxCell id="OubXks9zK13v49aWxOXn-16" value="Constraints:" style="text;html=1;align=center;verticalAlign=middle;resizable=0;points=[];autosize=1;strokeColor=none;fillColor=none;fontSize=12;" vertex="1" parent="1">
                    <mxGeometry y="120" width="80" height="20" as="geometry"/>
                </mxCell>
                <mxCell id="gWObZc9pJvgN-Cl8AsEd-51" value="A genome is the entire collection of genes and bases" style="text;html=1;strokeColor=none;fillColor=none;align=center;verticalAlign=middle;whiteSpace=wrap;rounded=0;" vertex="1" parent="1">
                    <mxGeometry y="160" width="200" height="30" as="geometry"/>
                </mxCell>
                <mxCell id="gWObZc9pJvgN-Cl8AsEd-52" value="A gene is a collection of bases that define a connection" style="text;html=1;strokeColor=none;fillColor=none;align=center;verticalAlign=middle;whiteSpace=wrap;rounded=0;" vertex="1" parent="1">
                    <mxGeometry y="200" width="200" height="30" as="geometry"/>
                </mxCell>
                <mxCell id="gWObZc9pJvgN-Cl8AsEd-53" value="A base is a single hex character in a gene" style="text;html=1;strokeColor=none;fillColor=none;align=center;verticalAlign=middle;whiteSpace=wrap;rounded=0;" vertex="1" parent="1">
                    <mxGeometry y="240" width="200" height="30" as="geometry"/>
                </mxCell>
                <mxCell id="gWObZc9pJvgN-Cl8AsEd-89" value="Genome" style="swimlane;rounded=1;html=1;" vertex="1" parent="1">
                    <mxGeometry y="300" width="290" height="180" as="geometry">
                        <mxRectangle x="90" y="330" width="80" height="23" as="alternateBounds"/>
                    </mxGeometry>
                </mxCell>
                <mxCell id="gWObZc9pJvgN-Cl8AsEd-137" value="Info" style="swimlane;rounded=1;html=1;" vertex="1" parent="gWObZc9pJvgN-Cl8AsEd-89">
                    <mxGeometry x="-620" y="90" width="200" height="200" as="geometry"/>
                </mxCell>
                <mxCell id="OubXks9zK13v49aWxOXn-29" value="Genes" style="swimlane;rounded=1;html=1;" vertex="1" parent="gWObZc9pJvgN-Cl8AsEd-89">
                    <mxGeometry y="90" width="290" height="90" as="geometry">
                        <mxRectangle y="90" width="70" height="23" as="alternateBounds"/>
                    </mxGeometry>
                </mxCell>
                <mxCell id="gWObZc9pJvgN-Cl8AsEd-81" value="Gene" style="swimlane;rounded=1;html=1;" vertex="1" parent="OubXks9zK13v49aWxOXn-29">
                    <mxGeometry y="30" width="90" height="50" as="geometry">
                        <mxRectangle y="30" width="60" height="23" as="alternateBounds"/>
                    </mxGeometry>
                </mxCell>
                <mxCell id="gWObZc9pJvgN-Cl8AsEd-84" value="18fa263b" style="text;html=1;strokeColor=none;fillColor=none;align=center;verticalAlign=middle;whiteSpace=wrap;rounded=0;" vertex="1" parent="gWObZc9pJvgN-Cl8AsEd-81">
                    <mxGeometry y="20" width="90" height="30" as="geometry"/>
                </mxCell>
                <mxCell id="gWObZc9pJvgN-Cl8AsEd-85" value="Gene" style="swimlane;rounded=1;html=1;" vertex="1" parent="OubXks9zK13v49aWxOXn-29">
                    <mxGeometry x="100" y="30" width="90" height="50" as="geometry">
                        <mxRectangle x="100" y="30" width="60" height="23" as="alternateBounds"/>
                    </mxGeometry>
                </mxCell>
                <mxCell id="gWObZc9pJvgN-Cl8AsEd-86" value="857a7b3f" style="text;html=1;strokeColor=none;fillColor=none;align=center;verticalAlign=middle;whiteSpace=wrap;rounded=0;" vertex="1" parent="gWObZc9pJvgN-Cl8AsEd-85">
                    <mxGeometry y="20" width="90" height="30" as="geometry"/>
                </mxCell>
                <mxCell id="gWObZc9pJvgN-Cl8AsEd-87" value="Gene" style="swimlane;rounded=1;html=1;" vertex="1" parent="OubXks9zK13v49aWxOXn-29">
                    <mxGeometry x="200" y="30" width="90" height="50" as="geometry"/>
                </mxCell>
                <mxCell id="gWObZc9pJvgN-Cl8AsEd-88" value="697ce141" style="text;html=1;strokeColor=none;fillColor=none;align=center;verticalAlign=middle;whiteSpace=wrap;rounded=0;" vertex="1" parent="gWObZc9pJvgN-Cl8AsEd-87">
                    <mxGeometry y="20" width="90" height="30" as="geometry"/>
                </mxCell>
                <mxCell id="OubXks9zK13v49aWxOXn-34" value="Other info" style="text;html=1;align=center;verticalAlign=middle;resizable=0;points=[];autosize=1;strokeColor=none;fillColor=none;fontSize=12;" vertex="1" parent="gWObZc9pJvgN-Cl8AsEd-89">
                    <mxGeometry x="110" y="30" width="70" height="20" as="geometry"/>
                </mxCell>
                <mxCell id="gWObZc9pJvgN-Cl8AsEd-90" value="7f" style="ellipse;whiteSpace=wrap;html=1;aspect=fixed;rounded=1;" vertex="1" parent="1">
                    <mxGeometry x="510" y="80" width="30" height="30" as="geometry"/>
                </mxCell>
                <mxCell id="gWObZc9pJvgN-Cl8AsEd-92" value="..." style="text;html=1;align=center;verticalAlign=middle;resizable=0;points=[];autosize=1;strokeColor=none;fillColor=none;" vertex="1" parent="1">
                    <mxGeometry x="475" y="85" width="30" height="20" as="geometry"/>
                </mxCell>
                <mxCell id="gWObZc9pJvgN-Cl8AsEd-98" value="7f" style="ellipse;whiteSpace=wrap;html=1;aspect=fixed;rounded=1;" vertex="1" parent="1">
                    <mxGeometry x="510" y="240" width="30" height="30" as="geometry"/>
                </mxCell>
                <mxCell id="gWObZc9pJvgN-Cl8AsEd-99" value="..." style="text;html=1;align=center;verticalAlign=middle;resizable=0;points=[];autosize=1;strokeColor=none;fillColor=none;" vertex="1" parent="1">
                    <mxGeometry x="475" y="245" width="30" height="20" as="geometry"/>
                </mxCell>
                <mxCell id="gWObZc9pJvgN-Cl8AsEd-100" value="81" style="ellipse;whiteSpace=wrap;html=1;aspect=fixed;rounded=1;" vertex="1" parent="1">
                    <mxGeometry x="520" y="170" width="20" height="20" as="geometry"/>
                </mxCell>
                <mxCell id="gWObZc9pJvgN-Cl8AsEd-111" value="0.5" style="ellipse;whiteSpace=wrap;html=1;aspect=fixed;rounded=1;" vertex="1" parent="1">
                    <mxGeometry x="760" y="80" width="30" height="30" as="geometry"/>
                </mxCell>
                <mxCell id="gWObZc9pJvgN-Cl8AsEd-112" value="-0.5" style="ellipse;whiteSpace=wrap;html=1;aspect=fixed;rounded=1;" vertex="1" parent="1">
                    <mxGeometry x="800" y="80" width="30" height="30" as="geometry"/>
                </mxCell>
                <mxCell id="gWObZc9pJvgN-Cl8AsEd-113" value="0.3" style="ellipse;whiteSpace=wrap;html=1;aspect=fixed;rounded=1;" vertex="1" parent="1">
                    <mxGeometry x="840" y="80" width="30" height="30" as="geometry"/>
                </mxCell>
                <mxCell id="gWObZc9pJvgN-Cl8AsEd-115" value="-0.5" style="ellipse;whiteSpace=wrap;html=1;aspect=fixed;rounded=1;" vertex="1" parent="1">
                    <mxGeometry x="760" y="240" width="30" height="30" as="geometry"/>
                </mxCell>
                <mxCell id="gWObZc9pJvgN-Cl8AsEd-116" value="0" style="ellipse;whiteSpace=wrap;html=1;aspect=fixed;rounded=1;" vertex="1" parent="1">
                    <mxGeometry x="840" y="240" width="30" height="30" as="geometry"/>
                </mxCell>
                <mxCell id="gWObZc9pJvgN-Cl8AsEd-117" value="" style="endArrow=classic;html=1;exitX=0.5;exitY=1;exitDx=0;exitDy=0;rounded=1;curved=1;" edge="1" parent="1" source="gWObZc9pJvgN-Cl8AsEd-112" target="gWObZc9pJvgN-Cl8AsEd-116">
                    <mxGeometry width="50" height="50" relative="1" as="geometry">
                        <mxPoint x="1040" y="220" as="sourcePoint"/>
                        <mxPoint x="1090" y="170" as="targetPoint"/>
                        <Array as="points">
                            <mxPoint x="800" y="160"/>
                            <mxPoint x="880" y="160"/>
                        </Array>
                    </mxGeometry>
                </mxCell>
                <mxCell id="gWObZc9pJvgN-Cl8AsEd-118" value="-0.2" style="ellipse;whiteSpace=wrap;html=1;aspect=fixed;rounded=1;" vertex="1" parent="1">
                    <mxGeometry x="797.5" y="167.5" width="32.5" height="32.5" as="geometry"/>
                </mxCell>
                <mxCell id="gWObZc9pJvgN-Cl8AsEd-126" value="" style="endArrow=classic;html=1;rounded=1;curved=1;entryX=1;entryY=0;entryDx=0;entryDy=0;exitX=0.5;exitY=1;exitDx=0;exitDy=0;" edge="1" parent="1" source="gWObZc9pJvgN-Cl8AsEd-113" target="gWObZc9pJvgN-Cl8AsEd-118">
                    <mxGeometry relative="1" as="geometry">
                        <mxPoint x="930.0000000000002" y="69.99999999999989" as="sourcePoint"/>
                        <mxPoint x="950.0000000000002" y="139.9999999999999" as="targetPoint"/>
                    </mxGeometry>
                </mxCell>
                <mxCell id="gWObZc9pJvgN-Cl8AsEd-127" value="0.3" style="edgeLabel;resizable=0;html=1;align=center;verticalAlign=middle;rounded=1;" connectable="0" vertex="1" parent="gWObZc9pJvgN-Cl8AsEd-126">
                    <mxGeometry relative="1" as="geometry"/>
                </mxCell>
                <mxCell id="gWObZc9pJvgN-Cl8AsEd-128" value="" style="endArrow=classic;html=1;rounded=1;curved=1;entryX=0;entryY=0;entryDx=0;entryDy=0;exitX=0.5;exitY=1;exitDx=0;exitDy=0;" edge="1" parent="1" source="gWObZc9pJvgN-Cl8AsEd-111" target="gWObZc9pJvgN-Cl8AsEd-118">
                    <mxGeometry relative="1" as="geometry">
                        <mxPoint x="865" y="119.99999999999989" as="sourcePoint"/>
                        <mxPoint x="910" y="179.9999999999999" as="targetPoint"/>
                    </mxGeometry>
                </mxCell>
                <mxCell id="gWObZc9pJvgN-Cl8AsEd-129" value="-0.6" style="edgeLabel;resizable=0;html=1;align=center;verticalAlign=middle;rounded=1;" connectable="0" vertex="1" parent="gWObZc9pJvgN-Cl8AsEd-128">
                    <mxGeometry relative="1" as="geometry"/>
                </mxCell>
                <mxCell id="gWObZc9pJvgN-Cl8AsEd-130" value="" style="endArrow=classic;html=1;rounded=1;curved=1;entryX=0.5;entryY=0;entryDx=0;entryDy=0;exitX=1;exitY=1;exitDx=0;exitDy=0;" edge="1" parent="1" source="gWObZc9pJvgN-Cl8AsEd-118" target="gWObZc9pJvgN-Cl8AsEd-116">
                    <mxGeometry relative="1" as="geometry">
                        <mxPoint x="920.0000000000002" y="223.5399999999999" as="sourcePoint"/>
                        <mxPoint x="1037.9289321881342" y="286.46893218813426" as="targetPoint"/>
                    </mxGeometry>
                </mxCell>
                <mxCell id="gWObZc9pJvgN-Cl8AsEd-131" value="-0.9" style="edgeLabel;resizable=0;html=1;align=center;verticalAlign=middle;rounded=1;" connectable="0" vertex="1" parent="gWObZc9pJvgN-Cl8AsEd-130">
                    <mxGeometry relative="1" as="geometry"/>
                </mxCell>
                <mxCell id="gWObZc9pJvgN-Cl8AsEd-132" value="" style="endArrow=classic;html=1;rounded=1;curved=1;entryX=0.5;entryY=0;entryDx=0;entryDy=0;exitX=0;exitY=1;exitDx=0;exitDy=0;" edge="1" parent="1" source="gWObZc9pJvgN-Cl8AsEd-118" target="gWObZc9pJvgN-Cl8AsEd-115">
                    <mxGeometry relative="1" as="geometry">
                        <mxPoint x="900" y="190" as="sourcePoint"/>
                        <mxPoint x="865" y="249.9999999999999" as="targetPoint"/>
                    </mxGeometry>
                </mxCell>
                <mxCell id="gWObZc9pJvgN-Cl8AsEd-133" value="2.6" style="edgeLabel;resizable=0;html=1;align=center;verticalAlign=middle;rounded=1;" connectable="0" vertex="1" parent="gWObZc9pJvgN-Cl8AsEd-132">
                    <mxGeometry relative="1" as="geometry"/>
                </mxCell>
                <mxCell id="gWObZc9pJvgN-Cl8AsEd-136" value="0.4" style="text;html=1;strokeColor=none;fillColor=none;align=center;verticalAlign=middle;whiteSpace=wrap;rounded=0;" vertex="1" parent="1">
                    <mxGeometry x="860" y="160" width="20" height="15" as="geometry"/>
                </mxCell>
                <mxCell id="OubXks9zK13v49aWxOXn-19" value="Neurons" style="swimlane;rounded=1;" vertex="1" parent="1">
                    <mxGeometry x="360" y="300" width="330" height="480" as="geometry">
                        <mxRectangle x="375" y="300" width="80" height="23" as="alternateBounds"/>
                    </mxGeometry>
                </mxCell>
                <mxCell id="gWObZc9pJvgN-Cl8AsEd-37" value="BaseNeuron" style="swimlane;rounded=1;" vertex="1" parent="OubXks9zK13v49aWxOXn-19">
                    <mxGeometry x="88.75" y="35" width="142.5" height="100" as="geometry"/>
                </mxCell>
                <mxCell id="gWObZc9pJvgN-Cl8AsEd-38" value="address: int&lt;br&gt;strength: float" style="text;strokeColor=none;fillColor=none;align=left;verticalAlign=top;rounded=0;whiteSpace=wrap;html=1;" vertex="1" parent="gWObZc9pJvgN-Cl8AsEd-37">
                    <mxGeometry y="25" width="120" height="45" as="geometry"/>
                </mxCell>
                <mxCell id="gWObZc9pJvgN-Cl8AsEd-39" value="InputNeuron" style="swimlane;rounded=1;" vertex="1" parent="OubXks9zK13v49aWxOXn-19">
                    <mxGeometry x="12.5" y="355" width="145" height="90" as="geometry"/>
                </mxCell>
                <mxCell id="gWObZc9pJvgN-Cl8AsEd-134" value="read_sensor(function)" style="text;html=1;strokeColor=none;fillColor=none;align=left;verticalAlign=top;whiteSpace=wrap;rounded=0;" vertex="1" parent="gWObZc9pJvgN-Cl8AsEd-39">
                    <mxGeometry y="30" width="140" height="50" as="geometry"/>
                </mxCell>
                <mxCell id="gWObZc9pJvgN-Cl8AsEd-41" value="ActionNeuron" style="swimlane;rounded=1;" vertex="1" parent="OubXks9zK13v49aWxOXn-19">
                    <mxGeometry x="177.5" y="355" width="140" height="90" as="geometry"/>
                </mxCell>
                <mxCell id="gWObZc9pJvgN-Cl8AsEd-135" value="preform_action(function)" style="text;html=1;strokeColor=none;fillColor=none;align=left;verticalAlign=top;whiteSpace=wrap;rounded=0;" vertex="1" parent="gWObZc9pJvgN-Cl8AsEd-41">
                    <mxGeometry y="30" width="140" height="50" as="geometry"/>
                </mxCell>
                <mxCell id="gWObZc9pJvgN-Cl8AsEd-47" value="" style="endArrow=classic;html=1;rounded=1;curved=1;exitX=0.25;exitY=1;exitDx=0;exitDy=0;entryX=0.75;entryY=0;entryDx=0;entryDy=0;" edge="1" parent="OubXks9zK13v49aWxOXn-19" source="gWObZc9pJvgN-Cl8AsEd-37" target="gWObZc9pJvgN-Cl8AsEd-105">
                    <mxGeometry relative="1" as="geometry">
                        <mxPoint x="-17.5" y="165" as="sourcePoint"/>
                        <mxPoint x="122.5" y="195" as="targetPoint"/>
                    </mxGeometry>
                </mxCell>
                <mxCell id="gWObZc9pJvgN-Cl8AsEd-48" value="Extends" style="edgeLabel;resizable=0;html=1;align=center;verticalAlign=middle;rounded=1;" connectable="0" vertex="1" parent="gWObZc9pJvgN-Cl8AsEd-47">
                    <mxGeometry relative="1" as="geometry"/>
                </mxCell>
                <mxCell id="gWObZc9pJvgN-Cl8AsEd-49" value="" style="endArrow=classic;html=1;rounded=1;curved=1;entryX=0.5;entryY=0;entryDx=0;entryDy=0;exitX=0.5;exitY=1;exitDx=0;exitDy=0;" edge="1" parent="OubXks9zK13v49aWxOXn-19" source="gWObZc9pJvgN-Cl8AsEd-102" target="gWObZc9pJvgN-Cl8AsEd-41">
                    <mxGeometry relative="1" as="geometry">
                        <mxPoint x="345" y="185" as="sourcePoint"/>
                        <mxPoint x="355" y="114.99999999999989" as="targetPoint"/>
                    </mxGeometry>
                </mxCell>
                <mxCell id="gWObZc9pJvgN-Cl8AsEd-50" value="Extends" style="edgeLabel;resizable=0;html=1;align=center;verticalAlign=middle;rounded=1;" connectable="0" vertex="1" parent="gWObZc9pJvgN-Cl8AsEd-49">
                    <mxGeometry relative="1" as="geometry"/>
                </mxCell>
                <mxCell id="gWObZc9pJvgN-Cl8AsEd-101" value="InterNeuron" style="swimlane;rounded=1;" vertex="1" parent="OubXks9zK13v49aWxOXn-19">
                    <mxGeometry x="177.5" y="205" width="140" height="90" as="geometry"/>
                </mxCell>
                <mxCell id="gWObZc9pJvgN-Cl8AsEd-102" value="calc_incoming()" style="text;strokeColor=none;fillColor=none;align=left;verticalAlign=top;rounded=0;whiteSpace=wrap;html=1;" vertex="1" parent="gWObZc9pJvgN-Cl8AsEd-101">
                    <mxGeometry y="25" width="140" height="65" as="geometry"/>
                </mxCell>
                <mxCell id="gWObZc9pJvgN-Cl8AsEd-103" value="" style="endArrow=classic;html=1;rounded=1;curved=1;entryX=0.25;entryY=0;entryDx=0;entryDy=0;exitX=0.75;exitY=1;exitDx=0;exitDy=0;" edge="1" parent="OubXks9zK13v49aWxOXn-19" source="gWObZc9pJvgN-Cl8AsEd-37" target="gWObZc9pJvgN-Cl8AsEd-101">
                    <mxGeometry relative="1" as="geometry">
                        <mxPoint x="272.5000000000002" y="264.9999999999999" as="sourcePoint"/>
                        <mxPoint x="222.50000000000023" y="335" as="targetPoint"/>
                    </mxGeometry>
                </mxCell>
                <mxCell id="gWObZc9pJvgN-Cl8AsEd-104" value="Extends" style="edgeLabel;resizable=0;html=1;align=center;verticalAlign=middle;rounded=1;" connectable="0" vertex="1" parent="gWObZc9pJvgN-Cl8AsEd-103">
                    <mxGeometry relative="1" as="geometry"/>
                </mxCell>
                <mxCell id="gWObZc9pJvgN-Cl8AsEd-105" value="IONeuron" style="swimlane;rounded=1;" vertex="1" parent="OubXks9zK13v49aWxOXn-19">
                    <mxGeometry x="15" y="205" width="140" height="90" as="geometry"/>
                </mxCell>
                <mxCell id="gWObZc9pJvgN-Cl8AsEd-106" value="function: method" style="text;strokeColor=none;fillColor=none;align=left;verticalAlign=top;rounded=0;whiteSpace=wrap;html=1;" vertex="1" parent="gWObZc9pJvgN-Cl8AsEd-105">
                    <mxGeometry y="25" width="140" height="65" as="geometry"/>
                </mxCell>
                <mxCell id="gWObZc9pJvgN-Cl8AsEd-107" value="" style="endArrow=classic;html=1;rounded=1;curved=1;exitX=0.5;exitY=1;exitDx=0;exitDy=0;entryX=0.5;entryY=0;entryDx=0;entryDy=0;" edge="1" parent="OubXks9zK13v49aWxOXn-19" source="gWObZc9pJvgN-Cl8AsEd-106" target="gWObZc9pJvgN-Cl8AsEd-39">
                    <mxGeometry relative="1" as="geometry">
                        <mxPoint x="47.50000000000023" y="214.9999999999999" as="sourcePoint"/>
                        <mxPoint x="35.00000000000023" y="284.9999999999999" as="targetPoint"/>
                    </mxGeometry>
                </mxCell>
                <mxCell id="gWObZc9pJvgN-Cl8AsEd-108" value="Extends" style="edgeLabel;resizable=0;html=1;align=center;verticalAlign=middle;rounded=1;" connectable="0" vertex="1" parent="gWObZc9pJvgN-Cl8AsEd-107">
                    <mxGeometry relative="1" as="geometry"/>
                </mxCell>
                <mxCell id="gWObZc9pJvgN-Cl8AsEd-109" value="" style="endArrow=classic;html=1;rounded=1;curved=1;exitX=0.75;exitY=1;exitDx=0;exitDy=0;entryX=0.25;entryY=0;entryDx=0;entryDy=0;" edge="1" parent="OubXks9zK13v49aWxOXn-19" source="gWObZc9pJvgN-Cl8AsEd-106" target="gWObZc9pJvgN-Cl8AsEd-41">
                    <mxGeometry relative="1" as="geometry">
                        <mxPoint x="177.50000000000023" y="234.9999999999999" as="sourcePoint"/>
                        <mxPoint x="175.00000000000023" y="295" as="targetPoint"/>
                    </mxGeometry>
                </mxCell>
                <mxCell id="gWObZc9pJvgN-Cl8AsEd-110" value="Extends" style="edgeLabel;resizable=0;html=1;align=center;verticalAlign=middle;rounded=1;" connectable="0" vertex="1" parent="gWObZc9pJvgN-Cl8AsEd-109">
                    <mxGeometry relative="1" as="geometry"/>
                </mxCell>
            </root>
        </mxGraphModel>
    </diagram>
</mxfile>